<svg width="4564" height="1097" viewBox="0 0 4564 1097" fill="none" xmlns="http://www.w3.org/2000/svg">
<path d="M1561.68 328.79C1340.42 328.79 1173.56 493.7 1173.56 712.39C1173.56 931.08 1340.42 1096.72 1561.68 1096.72C1782.94 1096.72 1950.55 931.5 1950.55 712.39C1950.55 493.28 1783.36 328.79 1561.68 328.79ZM1561.68 965.76C1417.92 965.76 1313.58 859.2 1313.58 712.4C1313.58 565.6 1417.92 459.78 1561.68 459.78C1705.44 459.78 1809.77 568.38 1809.77 712.4C1809.77 856.42 1703.11 965.76 1561.68 965.76Z" fill="#4F4F4D"/>
<path d="M2238.68 0.970001H2100.16V1082.41H2238.68V0.970001Z" fill="#4F4F4D"/>
<path d="M2654.55 116.22H2516.78V343.12H2360.76V470.32H2516.78V820.16C2516.78 998.5 2608.31 1096.71 2774.49 1096.71C2854.93 1096.71 2930.83 1071.32 2994.01 1023.27L3007.88 1013.21L2950.69 899.09L2926.06 917.66C2883.43 948.65 2832.82 965.73 2783.53 965.73C2700.36 965.73 2654.55 913.23 2654.55 817.89V116.22Z" fill="#4F4F4D"/>
<path d="M2749.32 470.33H2952.77V343.13H2685.31L2749.32 470.33Z" fill="#4F4F4D"/>
<path d="M3184.8 704.22C3185.54 675.05 3189.17 648.4 3189.17 648.4C3211.4 528.39 3294.69 454.5 3409.39 454.5C3524.09 454.5 3600.04 530.11 3618.04 648.4H3225.92L3285.02 765.06H3756.15L3757.48 753.83C3758.98 740.96 3759.83 725.43 3759.83 710.04C3758.25 485.58 3615.1 328.8 3411.66 328.8C3208.22 328.8 3044.66 490.44 3044.66 713.14C3044.66 935.84 3198.36 1096.73 3418.44 1096.73C3542.5 1096.73 3638.47 1060.17 3720.46 981.64L3661.06 868.51L3642.78 886.16C3580.93 942.67 3505.71 972.54 3425.23 972.54C3295.98 972.54 3205.85 893.45 3187.1 765.07C3187.1 765.07 3184.06 733.4 3184.8 704.23V704.22Z" fill="#4F4F4D"/>
<path d="M4038.67 343.13H3899.17V1082.41H4037.7L4038.67 343.13Z" fill="#4F4F4D"/>
<path d="M1023.51 1.64999H879.64V1082.72H1023.51V1.64999Z" fill="#4F4F4D"/>
<path d="M144.54 1.64999H0.660004V1082.72H144.54V1.64999Z" fill="#4F4F4D"/>
<path d="M706.62 1082.72H862.5L317.67 1.64999H161.78L706.62 1082.72Z" fill="#4F4F4D"/>
<path d="M4253.42 328.79C4208.64 328.79 4137.68 339.35 4073.48 382.32L4131.36 498.2C4161.81 481.26 4211.94 450.61 4280.41 463.24C4348.89 475.87 4426.13 535.22 4426.13 664.14V1082.41H4563.9V627.21C4563.9 448.71 4439.11 328.79 4253.4 328.79H4253.42Z" fill="#4F4F4D"/>
</svg>
